<svg width="38" height="38" viewBox="0 0 38 38" fill="none" xmlns="http://www.w3.org/2000/svg">
<rect width="38.0001" height="38.0001" rx="10.68" fill="#F6F6F6"/>
<path d="M28.0837 15.3903C28.0953 15.5526 28.0953 15.7149 28.0953 15.8772C28.0953 20.827 24.3279 26.5304 17.4421 26.5304C15.3208 26.5304 13.3501 25.916 11.6924 24.8495C11.9938 24.8843 12.2836 24.8959 12.5966 24.8959C14.347 24.8959 15.9583 24.3047 17.2451 23.2962C15.599 23.2614 14.2195 22.1833 13.7442 20.6995C13.9761 20.7343 14.2079 20.7575 14.4514 20.7575C14.7875 20.7575 15.1237 20.7111 15.4367 20.63C13.7211 20.2822 12.4343 18.7752 12.4343 16.9553V16.9089C12.9327 17.1871 13.5124 17.361 14.1267 17.3842C13.1182 16.7118 12.4575 15.5642 12.4575 14.2659C12.4575 13.5703 12.6429 12.9328 12.9675 12.3763C14.8107 14.6484 17.5812 16.1322 20.6879 16.2945C20.6299 16.0163 20.5952 15.7265 20.5952 15.4367C20.5952 13.3733 22.2644 11.6924 24.3394 11.6924C25.4175 11.6924 26.3912 12.1445 27.0752 12.8748C27.9214 12.7125 28.7328 12.3995 29.4516 11.9706C29.1733 12.8401 28.5821 13.5704 27.8055 14.034C28.559 13.9529 29.2893 13.7442 29.9616 13.4544C29.4516 14.1963 28.814 14.857 28.0837 15.3903Z" fill="#2A2F2F"/>
</svg>
