<svg width="38" height="38" viewBox="0 0 38 38" fill="none" xmlns="http://www.w3.org/2000/svg">
<rect width="38.0001" height="38.0001" rx="10.68" fill="#F6F6F6"/>
<path d="M18.9608 14.8573C16.6914 14.8573 14.8609 16.6878 14.8609 18.9572C14.8609 21.2266 16.6914 23.0571 18.9608 23.0571C21.2302 23.0571 23.0607 21.2266 23.0607 18.9572C23.0607 16.6878 21.2302 14.8573 18.9608 14.8573ZM18.9608 21.6227C17.4943 21.6227 16.2953 20.4273 16.2953 18.9572C16.2953 17.4871 17.4907 16.2918 18.9608 16.2918C20.4309 16.2918 21.6262 17.4871 21.6262 18.9572C21.6262 20.4273 20.4273 21.6227 18.9608 21.6227ZM24.1847 14.6896C24.1847 15.2213 23.7565 15.6459 23.2284 15.6459C22.6967 15.6459 22.2721 15.2177 22.2721 14.6896C22.2721 14.1615 22.7003 13.7334 23.2284 13.7334C23.7565 13.7334 24.1847 14.1615 24.1847 14.6896ZM26.9001 15.6602C26.8394 14.3792 26.5468 13.2445 25.6084 12.3096C24.6735 11.3748 23.5388 11.0822 22.2578 11.0179C20.9376 10.943 16.9804 10.943 15.6602 11.0179C14.3828 11.0786 13.2481 11.3712 12.3096 12.3061C11.3712 13.2409 11.0822 14.3756 11.0179 15.6566C10.943 16.9769 10.943 20.934 11.0179 22.2543C11.0786 23.5352 11.3712 24.6699 12.3096 25.6048C13.2481 26.5397 14.3792 26.8323 15.6602 26.8965C16.9804 26.9714 20.9376 26.9714 22.2578 26.8965C23.5388 26.8358 24.6735 26.5432 25.6084 25.6048C26.5433 24.6699 26.8358 23.5352 26.9001 22.2543C26.975 20.934 26.975 16.9804 26.9001 15.6602ZM25.1945 23.6708C24.9161 24.3702 24.3773 24.909 23.6744 25.1909C22.6218 25.6084 20.124 25.512 18.9608 25.512C17.7976 25.512 15.2962 25.6048 14.2472 25.1909C13.5478 24.9126 13.009 24.3738 12.7271 23.6708C12.3096 22.6182 12.406 20.1205 12.406 18.9572C12.406 17.794 12.3132 15.2927 12.7271 14.2436C13.0054 13.5442 13.5442 13.0054 14.2472 12.7235C15.2998 12.3061 17.7976 12.4024 18.9608 12.4024C20.124 12.4024 22.6253 12.3096 23.6744 12.7235C24.3738 13.0019 24.9126 13.5407 25.1945 14.2436C25.6119 15.2962 25.5156 17.794 25.5156 18.9572C25.5156 20.1205 25.6119 22.6218 25.1945 23.6708Z" fill="#2A2F2F"/>
</svg>
