<svg width="21" height="32" viewBox="0 0 21 32" fill="none" xmlns="http://www.w3.org/2000/svg">
<path d="M18.4773 0H2.38637C1.06819 0 0 1.06816 0 2.38634V29.6137C0 30.9318 1.06819 32 2.38637 32H18.4773C19.7955 32 20.8637 30.9318 20.8637 29.6137V2.38634C20.8637 1.09088 19.7728 0 18.4773 0Z" fill="white"/>
<path d="M19.7047 3.84099H1.13649V26.2956H19.7047V3.84099Z" fill="#404040"/>
<path d="M14.2274 1.43166H6.61372C6.31827 1.43166 6.04554 1.68166 6.04554 1.99985C6.04554 2.31803 6.29554 2.56803 6.61372 2.56803H14.2274C14.5228 2.56803 14.7956 2.31803 14.7956 1.99985C14.7956 1.70439 14.5456 1.43166 14.2274 1.43166Z" fill="#6639A6"/>
<path d="M8.61394 29C8.61394 28 9.43213 27.1591 10.4321 27.1591C11.4321 27.1591 12.273 27.9773 12.273 29C12.273 30 11.4549 30.8182 10.4321 30.8182C9.43213 30.8409 8.61394 30.0228 8.61394 29Z" fill="#6639A6"/>
</svg>
