<svg width="33" height="33" viewBox="0 0 33 33" fill="none" xmlns="http://www.w3.org/2000/svg">
<circle cx="16.4999" cy="16.4999" r="16.4999" fill="white"/>
<path fill-rule="evenodd" clip-rule="evenodd" d="M16.0825 12.2178C14.6805 10.5839 12.3425 10.1444 10.5858 11.6405C8.82916 13.1367 8.58185 15.6383 9.96137 17.4078C11.1083 18.8791 14.5795 21.982 15.7171 22.9863C15.8444 23.0987 15.9081 23.1549 15.9823 23.177C16.0471 23.1962 16.118 23.1962 16.1828 23.177C16.257 23.1549 16.3206 23.0987 16.4479 22.9863C17.5856 21.982 21.0567 18.8791 22.2037 17.4078C23.5832 15.6383 23.3661 13.121 21.5792 11.6405C19.7924 10.1601 17.4846 10.5839 16.0825 12.2178Z" stroke="#3C4242" stroke-width="1.26066" stroke-linecap="round" stroke-linejoin="round"/>
</svg>
